<svg width="18" height="18" viewBox="0 0 18 18" fill="none" xmlns="http://www.w3.org/2000/svg">
<path d="M17 0H1C0.447 0 0 0.448 0 1V17C0 17.552 0.447 18 1 18H17C17.553 18 18 17.552 18 17V1C18 0.448 17.553 0 17 0ZM5.339 15.337H2.667V6.747H5.339V15.337ZM4.003 5.574C3.147 5.574 2.455 4.88 2.455 4.026C2.455 3.172 3.146 2.478 4.003 2.478C4.857 2.478 5.551 3.171 5.551 4.026C5.551 4.881 4.857 5.574 4.003 5.574ZM15.338 15.337H12.669V11.16C12.669 10.164 12.651 8.883 11.281 8.883C9.891 8.883 9.68 9.969 9.68 11.09V15.338H7.013V6.748H9.573V7.922H9.61C9.965 7.247 10.837 6.535 12.134 6.535C14.838 6.535 15.337 8.313 15.337 10.627L15.338 15.337Z" fill="#9CA3AF"/>
</svg>
