<svg width="43" height="42" viewBox="0 0 43 42" fill="none" xmlns="http://www.w3.org/2000/svg">
<path fill-rule="evenodd" clip-rule="evenodd" d="M21.8895 1.00056C21.8898 0.724413 21.6662 0.500307 21.39 0.5C21.1139 0.499694 20.8898 0.723302 20.8895 0.999445L20.8718 16.886L17.0745 1.41415C17.0087 1.14596 16.7379 0.981916 16.4697 1.04774C16.2016 1.11356 16.0375 1.38432 16.1033 1.6525L19.9021 17.1303L12.521 3.05671C12.3927 2.81216 12.0905 2.71789 11.8459 2.84614C11.6014 2.9744 11.5071 3.27662 11.6354 3.52117L19.0025 17.568L8.47443 5.64681C8.29164 5.43983 7.97567 5.42022 7.76868 5.60301C7.5617 5.7858 7.54209 6.10178 7.72489 6.30876L18.287 18.2686L5.18429 9.23279C4.95697 9.07603 4.64559 9.13323 4.48883 9.36056C4.33206 9.58788 4.38926 9.89926 4.61659 10.056L17.6633 19.0532L2.83344 13.3995C2.57541 13.3011 2.28649 13.4306 2.18812 13.6886C2.08975 13.9466 2.21918 14.2355 2.47721 14.3339L17.3948 20.021L1.55947 18.1257C1.28528 18.0929 1.03641 18.2886 1.00359 18.5628C0.970777 18.837 1.16645 19.0858 1.44063 19.1186L17.1788 21.0023L1.44008 22.9036C1.16593 22.9367 0.97054 23.1858 1.00366 23.46C1.03678 23.7341 1.28587 23.9295 1.56002 23.8964L17.3777 21.9855L2.47721 27.6661C2.21918 27.7645 2.08975 28.0534 2.18812 28.3114C2.28649 28.5695 2.57541 28.6989 2.83344 28.6005L17.6631 22.9469L4.61659 31.9439C4.38926 32.1007 4.33206 32.4121 4.48883 32.6394C4.64559 32.8667 4.95697 32.9239 5.18429 32.7672L18.2871 23.7313L7.72489 35.6912C7.54209 35.8982 7.5617 36.2142 7.76868 36.397C7.97567 36.5798 8.29164 36.5602 8.47443 36.3532L19.0025 24.4319L11.6354 38.4789C11.5071 38.7234 11.6014 39.0256 11.8459 39.1539C12.0905 39.2822 12.3927 39.1879 12.521 38.9433L19.9021 24.8698L16.1033 40.3475C16.0375 40.6157 16.2016 40.8864 16.4697 40.9522C16.7379 41.0181 17.0087 40.854 17.0745 40.5858L20.8718 25.114L20.8895 41.0006C20.8898 41.2767 21.1139 41.5003 21.39 41.5C21.6662 41.4997 21.8898 41.2756 21.8895 40.9994L21.8718 25.1164L25.7041 40.5869C25.7705 40.8549 26.0416 41.0184 26.3097 40.952C26.5777 40.8856 26.7412 40.6145 26.6748 40.3464L22.8406 24.8684L30.2582 38.9442C30.387 39.1885 30.6894 39.2822 30.9337 39.1534C31.1779 39.0247 31.2716 38.7223 31.1429 38.478L23.7421 24.434L34.3041 36.3538C34.4872 36.5605 34.8032 36.5796 35.0099 36.3964C35.2166 36.2133 35.2357 35.8973 35.0526 35.6906L24.4543 23.73L37.595 32.7675C37.8225 32.924 38.1338 32.8664 38.2903 32.6389C38.4468 32.4114 38.3892 32.1001 38.1616 31.9436L25.0813 22.9475L39.945 28.6007C40.2031 28.6988 40.4919 28.5692 40.5901 28.3111C40.6883 28.053 40.5586 27.7642 40.3005 27.666L25.3648 21.9855L41.2185 23.8964C41.4926 23.9295 41.7417 23.734 41.7747 23.4598C41.8078 23.1857 41.6123 22.9366 41.3381 22.9036L25.5644 21.0023L41.3376 19.1187C41.6118 19.0859 41.8075 18.8371 41.7748 18.5629C41.742 18.2887 41.4932 18.093 41.219 18.1257L25.3477 20.0211L40.3005 14.334C40.5586 14.2359 40.6883 13.9471 40.5901 13.689C40.4919 13.4309 40.2031 13.3012 39.945 13.3994L25.0811 19.0526L38.1616 10.0564C38.3892 9.8999 38.4468 9.5886 38.2903 9.36107C38.1338 9.13355 37.8225 9.07596 37.595 9.23244L24.4544 18.2699L35.0526 6.30938C35.2357 6.1027 35.2166 5.7867 35.0099 5.60356C34.8032 5.42042 34.4872 5.43951 34.3041 5.64619L23.7421 17.5659L31.1429 3.52204C31.2716 3.27775 31.1779 2.97534 30.9337 2.8466C30.6894 2.71786 30.387 2.81154 30.2582 3.05584L22.8406 17.1317L26.6748 1.65355C26.7412 1.38551 26.5777 1.11439 26.3097 1.04799C26.0416 0.981596 25.7705 1.14506 25.7041 1.4131L21.8718 16.8836L21.8895 1.00056Z" fill="#887EFF"/>
<path d="M21.39 0.5L21.3906 3.09101e-07L21.3906 3.07843e-07L21.39 0.5ZM21.8895 1.00056L21.3895 0.999999L21.3895 1L21.8895 1.00056ZM20.8895 0.999445L20.3895 0.998889L20.3895 0.998889L20.8895 0.999445ZM20.8718 16.886L20.3862 17.0051L21.3672 21.0022L21.3718 16.8865L20.8718 16.886ZM17.0745 1.41415L16.5889 1.53332L16.5889 1.53333L17.0745 1.41415ZM16.4697 1.04774L16.3506 0.562148L16.3506 0.562148L16.4697 1.04774ZM16.1033 1.6525L16.5889 1.53333L16.5889 1.53332L16.1033 1.6525ZM19.9021 17.1303L19.4593 17.3625L21.3664 20.9988L20.3877 17.0111L19.9021 17.1303ZM12.521 3.05671L12.0782 3.28894L12.0782 3.28894L12.521 3.05671ZM11.8459 2.84614L11.6137 2.40335L11.6137 2.40335L11.8459 2.84614ZM11.6354 3.52117L12.0782 3.28894L12.0782 3.28894L11.6354 3.52117ZM19.0025 17.568L18.6277 17.899L21.3681 21.002L19.4453 17.3358L19.0025 17.568ZM8.47443 5.64681L8.84921 5.31583L8.84921 5.31583L8.47443 5.64681ZM7.76868 5.60301L7.43771 5.22824L7.43771 5.22824L7.76868 5.60301ZM7.72489 6.30876L8.09966 5.97778L8.09966 5.97778L7.72489 6.30876ZM18.287 18.2686L18.0032 18.6802L21.3651 20.9986L18.6618 17.9376L18.287 18.2686ZM5.18429 9.23279L5.46815 8.82118L5.46815 8.82118L5.18429 9.23279ZM4.48883 9.36056L4.90044 9.64441L4.90044 9.64441L4.48883 9.36056ZM4.61659 10.056L4.33273 10.4676L4.33273 10.4676L4.61659 10.056ZM17.6633 19.0532L17.4852 19.5204L21.3681 21.0007L17.9472 18.6416L17.6633 19.0532ZM2.83344 13.3995L3.01155 12.9323L3.01155 12.9323L2.83344 13.3995ZM2.18812 13.6886L2.65532 13.8667L2.65532 13.8667L2.18812 13.6886ZM2.47721 14.3339L2.2991 14.8011L2.2991 14.8011L2.47721 14.3339ZM17.3948 20.021L17.3354 20.5175L21.366 20.9999L17.5729 19.5538L17.3948 20.021ZM1.55947 18.1257L1.50005 18.6222L1.50005 18.6222L1.55947 18.1257ZM1.44063 19.1186L1.50005 18.6222L1.50005 18.6222L1.44063 19.1186ZM17.1788 21.0023L17.2387 21.4987L21.3669 21L17.2382 20.5058L17.1788 21.0023ZM1.44008 22.9036L1.38012 22.4072L1.38012 22.4072L1.44008 22.9036ZM1.56002 23.8964L1.61998 24.3928L1.61998 24.3928L1.56002 23.8964ZM17.3777 21.9855L17.5558 22.4527L21.3663 21L17.3178 21.4891L17.3777 21.9855ZM2.47721 27.6661L2.2991 27.1989L2.2991 27.1989L2.47721 27.6661ZM2.18812 28.3114L2.65532 28.1333L2.65532 28.1333L2.18812 28.3114ZM2.83344 28.6005L3.01155 29.0677L3.01155 29.0677L2.83344 28.6005ZM17.6631 22.9469L17.9469 23.3586L21.3679 20.9994L17.485 22.4797L17.6631 22.9469ZM4.61659 31.9439L4.90044 32.3556L4.90044 32.3556L4.61659 31.9439ZM4.48883 32.6394L4.07721 32.9233L4.07721 32.9233L4.48883 32.6394ZM5.18429 32.7672L4.90044 32.3556L4.90044 32.3556L5.18429 32.7672ZM18.2871 23.7313L18.6619 24.0623L21.3651 21.0013L18.0033 23.3197L18.2871 23.7313ZM7.72489 35.6912L7.35011 35.3603L7.35011 35.3603L7.72489 35.6912ZM7.76868 36.397L8.09966 36.0222L8.09966 36.0222L7.76868 36.397ZM8.47443 36.3532L8.84921 36.6842L8.84921 36.6842L8.47443 36.3532ZM19.0025 24.4319L19.4453 24.6642L21.3681 20.9979L18.6278 24.1009L19.0025 24.4319ZM11.6354 38.4789L11.1926 38.2466L11.1926 38.2466L11.6354 38.4789ZM11.8459 39.1539L12.0782 38.7111L12.0782 38.7111L11.8459 39.1539ZM12.521 38.9433L12.0782 38.7111L12.0782 38.7111L12.521 38.9433ZM19.9021 24.8698L20.3877 24.989L21.3664 21.0013L19.4593 24.6376L19.9021 24.8698ZM16.1033 40.3475L16.5889 40.4667L16.5889 40.4667L16.1033 40.3475ZM16.4697 40.9522L16.5889 40.4667L16.5889 40.4667L16.4697 40.9522ZM17.0745 40.5858L16.5889 40.4667L16.5889 40.4667L17.0745 40.5858ZM20.8718 25.114L21.3718 25.1135L21.3672 20.9978L20.3862 24.9948L20.8718 25.114ZM20.8895 41.0006L20.3895 41.0011L20.3895 41.0011L20.8895 41.0006ZM21.8895 40.9994L21.3895 41L21.3895 41L21.8895 40.9994ZM21.8718 25.1164L22.3571 24.9961L21.3672 21L21.3718 25.1169L21.8718 25.1164ZM25.7041 40.5869L26.1894 40.4667L26.1894 40.4667L25.7041 40.5869ZM26.3097 40.952L26.1894 40.4667L26.1894 40.4667L26.3097 40.952ZM26.6748 40.3464L27.1601 40.2262L27.1601 40.2262L26.6748 40.3464ZM22.8406 24.8684L23.283 24.6353L21.3672 21L22.3553 24.9886L22.8406 24.8684ZM30.2582 38.9442L30.7006 38.7111L30.7006 38.7111L30.2582 38.9442ZM31.1429 38.478L31.5852 38.2449L31.5852 38.2449L31.1429 38.478ZM23.7421 24.434L24.1163 24.1024L21.3672 21L23.2997 24.6671L23.7421 24.434ZM34.3041 36.3538L34.6783 36.0222L34.6783 36.0222L34.3041 36.3538ZM35.0099 36.3964L35.3415 36.7707L35.3415 36.7707L35.0099 36.3964ZM35.0526 35.6906L34.6783 36.0222L34.6783 36.0222L35.0526 35.6906ZM24.4543 23.73L24.7376 23.318L21.3672 21L24.0801 24.0616L24.4543 23.73ZM37.595 32.7675L37.8783 32.3556L37.8783 32.3555L37.595 32.7675ZM38.2903 32.6389L37.8783 32.3555L37.8783 32.3556L38.2903 32.6389ZM38.1616 31.9436L37.8783 32.3555L37.8783 32.3555L38.1616 31.9436ZM25.0813 22.9475L25.259 22.4802L21.3672 21L24.798 23.3595L25.0813 22.9475ZM39.945 28.6007L40.1228 28.1333L40.1228 28.1333L39.945 28.6007ZM40.5901 28.3111L41.0574 28.4888L41.0574 28.4888L40.5901 28.3111ZM40.3005 27.666L40.1228 28.1333L40.1228 28.1333L40.3005 27.666ZM25.3648 21.9855L25.4247 21.4891L21.3672 21L25.1871 22.4528L25.3648 21.9855ZM41.2185 23.8964L41.2783 23.4L41.2783 23.4L41.2185 23.8964ZM41.3381 22.9036L41.2783 23.4L41.2783 23.4L41.3381 22.9036ZM25.5644 21.0023L25.5051 20.5058L21.3671 21L25.5046 21.4987L25.5644 21.0023ZM41.3376 19.1187L41.3969 19.6151L41.3969 19.6151L41.3376 19.1187ZM41.7748 18.5629L41.2783 18.6222L41.2783 18.6222L41.7748 18.5629ZM41.219 18.1257L41.1597 17.6292L41.1597 17.6292L41.219 18.1257ZM25.3477 20.0211L25.17 19.5537L21.3675 20.9999L25.407 20.5175L25.3477 20.0211ZM40.3005 14.334L40.4783 14.8014L40.4783 14.8014L40.3005 14.334ZM40.5901 13.689L41.0574 13.5112L41.0574 13.5112L40.5901 13.689ZM39.945 13.3994L40.1228 13.8667L40.1228 13.8667L39.945 13.3994ZM25.0811 19.0526L24.7977 18.6406L21.367 21.0001L25.2588 19.5199L25.0811 19.0526ZM38.1616 10.0564L37.8783 9.64441L37.8783 9.64441L38.1616 10.0564ZM38.2903 9.36107L37.8783 9.64441L37.8783 9.64441L38.2903 9.36107ZM37.595 9.23244L37.8783 9.64441L37.8783 9.64441L37.595 9.23244ZM24.4544 18.2699L24.0802 17.9383L21.3673 20.9999L24.7377 18.6819L24.4544 18.2699ZM35.0526 6.30938L35.4268 6.64098L35.4268 6.64098L35.0526 6.30938ZM35.0099 5.60356L35.3415 5.22934L35.3415 5.22933L35.0099 5.60356ZM34.3041 5.64619L33.9299 5.31459L33.9299 5.31459L34.3041 5.64619ZM23.7421 17.5659L23.2998 17.3328L21.3673 20.9999L24.1163 17.8975L23.7421 17.5659ZM31.1429 3.52204L31.5852 3.75514L31.5852 3.75514L31.1429 3.52204ZM30.9337 2.8466L30.7006 3.28894L30.7006 3.28894L30.9337 2.8466ZM30.2582 3.05584L30.7006 3.28894L30.7006 3.28894L30.2582 3.05584ZM22.8406 17.1317L22.3553 17.0114L21.3672 21.0001L23.2829 17.3648L22.8406 17.1317ZM26.6748 1.65355L27.1601 1.77377L27.1601 1.77377L26.6748 1.65355ZM26.3097 1.04799L26.1894 1.53333L26.1894 1.53333L26.3097 1.04799ZM25.7041 1.4131L25.2188 1.29288L25.2188 1.29288L25.7041 1.4131ZM21.8718 16.8836L21.3718 16.8831L21.3672 21L22.3571 17.0039L21.8718 16.8836ZM21.3895 1L21.3895 0.999999L22.3895 1.00111C22.3901 0.448825 21.9428 0.000614414 21.3906 3.09102e-07L21.3895 1ZM21.3895 1L21.3895 1L21.3906 3.07843e-07C20.8383 -0.000612547 20.3901 0.446605 20.3895 0.998889L21.3895 1ZM21.3718 16.8865L21.3895 1L20.3895 0.998889L20.3718 16.8854L21.3718 16.8865ZM16.5889 1.53333L20.3862 17.0051L21.3574 16.7668L17.5601 1.29497L16.5889 1.53333ZM16.5889 1.53333L16.5889 1.53332L17.5601 1.29497C17.4285 0.7586 16.8869 0.430506 16.3506 0.562148L16.5889 1.53333ZM16.5889 1.53332L16.5889 1.53333L16.3506 0.562148C15.8142 0.69379 15.4861 1.23532 15.6177 1.77169L16.5889 1.53332ZM20.3877 17.0111L16.5889 1.53333L15.6177 1.77168L19.4165 17.2495L20.3877 17.0111ZM12.0782 3.28894L19.4593 17.3625L20.3449 16.898L12.9638 2.82448L12.0782 3.28894ZM12.0782 3.28894L12.0782 3.28894L12.9638 2.82448C12.7073 2.33538 12.1028 2.14683 11.6137 2.40335L12.0782 3.28894ZM12.0782 3.28894L12.0782 3.28894L11.6137 2.40335C11.1246 2.65986 10.9361 3.2643 11.1926 3.7534L12.0782 3.28894ZM19.4453 17.3358L12.0782 3.28894L11.1926 3.7534L18.5597 17.8003L19.4453 17.3358ZM8.09966 5.97778L18.6277 17.899L19.3773 17.237L8.84921 5.31583L8.09966 5.97778ZM8.09966 5.97778L8.09966 5.97778L8.84921 5.31583C8.48362 4.90187 7.85167 4.86265 7.43771 5.22824L8.09966 5.97778ZM8.09966 5.97778L8.09966 5.97778L7.43771 5.22824C7.02375 5.59382 6.98453 6.22577 7.35011 6.63973L8.09966 5.97778ZM18.6618 17.9376L8.09966 5.97778L7.35011 6.63973L17.9122 18.5995L18.6618 17.9376ZM4.90044 9.64441L18.0032 18.6802L18.5709 17.8569L5.46815 8.82118L4.90044 9.64441ZM4.90044 9.64441L4.90044 9.64441L5.46815 8.82118C5.01349 8.50764 4.39075 8.62204 4.07721 9.0767L4.90044 9.64441ZM4.90044 9.64441L4.90044 9.64441L4.07721 9.0767C3.76367 9.53136 3.87808 10.1541 4.33273 10.4676L4.90044 9.64441ZM17.9472 18.6416L4.90044 9.64441L4.33273 10.4676L17.3794 19.4648L17.9472 18.6416ZM2.65532 13.8667L17.4852 19.5204L17.8414 18.586L3.01155 12.9323L2.65532 13.8667ZM2.65532 13.8667L2.65532 13.8667L3.01155 12.9323C2.49549 12.7356 1.91766 12.9944 1.72092 13.5105L2.65532 13.8667ZM2.65532 13.8667L2.65532 13.8667L1.72092 13.5105C1.52419 14.0265 1.78304 14.6044 2.2991 14.8011L2.65532 13.8667ZM17.5729 19.5538L2.65532 13.8667L2.2991 14.8011L17.2167 20.4882L17.5729 19.5538ZM1.50005 18.6222L17.3354 20.5175L17.4542 19.5246L1.61889 17.6293L1.50005 18.6222ZM1.50005 18.6222L1.50005 18.6222L1.61889 17.6293C1.07052 17.5636 0.572769 17.955 0.507136 18.5034L1.50005 18.6222ZM1.50005 18.6222L1.50005 18.6222L0.507136 18.5034C0.441504 19.0517 0.83284 19.5495 1.38121 19.6151L1.50005 18.6222ZM17.2382 20.5058L1.50005 18.6222L1.38121 19.6151L17.1193 21.4987L17.2382 20.5058ZM1.50005 23.4L17.2387 21.4987L17.1188 20.5059L1.38012 22.4072L1.50005 23.4ZM1.50005 23.4L1.50005 23.4L1.38012 22.4072C0.831818 22.4735 0.44103 22.9716 0.507268 23.5199L1.50005 23.4ZM1.50005 23.4L1.50005 23.4L0.507268 23.5199C0.573506 24.0682 1.07169 24.459 1.61998 24.3928L1.50005 23.4ZM17.3178 21.4891L1.50005 23.4L1.61998 24.3928L17.4377 22.4819L17.3178 21.4891ZM2.65532 28.1333L17.5558 22.4527L17.1996 21.5183L2.2991 27.1989L2.65532 28.1333ZM2.65532 28.1333L2.65532 28.1333L2.2991 27.1989C1.78304 27.3957 1.52419 27.9735 1.72092 28.4896L2.65532 28.1333ZM2.65533 28.1333L2.65532 28.1333L1.72092 28.4896C1.91766 29.0056 2.4955 29.2645 3.01155 29.0677L2.65533 28.1333ZM17.485 22.4797L2.65532 28.1333L3.01155 29.0677L17.8412 23.4141L17.485 22.4797ZM4.90044 32.3556L17.9469 23.3586L17.3792 22.5353L4.33273 31.5323L4.90044 32.3556ZM4.90044 32.3556L4.90044 32.3556L4.33273 31.5323C3.87807 31.8459 3.76368 32.4686 4.07721 32.9233L4.90044 32.3556ZM4.90044 32.3556L4.90044 32.3555L4.07721 32.9233C4.39074 33.3779 5.01349 33.4923 5.46815 33.1788L4.90044 32.3556ZM18.0033 23.3197L4.90044 32.3556L5.46815 33.1788L18.571 24.1429L18.0033 23.3197ZM8.09966 36.0222L18.6619 24.0623L17.9123 23.4004L7.35011 35.3603L8.09966 36.0222ZM8.09966 36.0222L8.09966 36.0222L7.35011 35.3603C6.98453 35.7742 7.02375 36.4062 7.43771 36.7718L8.09966 36.0222ZM8.09966 36.0222L8.09966 36.0222L7.4377 36.7718C7.85167 37.1374 8.48362 37.0981 8.84921 36.6842L8.09966 36.0222ZM18.6278 24.1009L8.09966 36.0222L8.84921 36.6842L19.3773 24.7629L18.6278 24.1009ZM12.0782 38.7111L19.4453 24.6642L18.5597 24.1997L11.1926 38.2466L12.0782 38.7111ZM12.0782 38.7111L12.0782 38.7111L11.1926 38.2466C10.9361 38.7357 11.1246 39.3402 11.6137 39.5967L12.0782 38.7111ZM12.0782 38.7111L12.0782 38.7111L11.6137 39.5967C12.1028 39.8532 12.7073 39.6647 12.9638 39.1756L12.0782 38.7111ZM19.4593 24.6376L12.0782 38.7111L12.9638 39.1756L20.3449 25.102L19.4593 24.6376ZM16.5889 40.4667L20.3877 24.989L19.4165 24.7506L15.6177 40.2283L16.5889 40.4667ZM16.5889 40.4667L16.5889 40.4667L15.6177 40.2283C15.4861 40.7647 15.8142 41.3062 16.3506 41.4378L16.5889 40.4667ZM16.5889 40.4667L16.5889 40.4667L16.3506 41.4378C16.8869 41.5695 17.4285 41.2414 17.5601 40.705L16.5889 40.4667ZM20.3862 24.9948L16.5889 40.4667L17.5601 40.705L21.3574 25.2332L20.3862 24.9948ZM21.3895 41L21.3718 25.1135L20.3718 25.1146L20.3895 41.0011L21.3895 41ZM21.3895 41L21.3895 41L20.3895 41.0011C20.3901 41.5534 20.8383 42.0006 21.3906 42L21.3895 41ZM21.3895 41L21.3895 41L21.3906 42C21.9428 41.9994 22.3901 41.5512 22.3895 40.9989L21.3895 41ZM21.3718 25.1169L21.3895 41L22.3895 40.9989L22.3718 25.1158L21.3718 25.1169ZM26.1894 40.4667L22.3571 24.9961L21.3865 25.2366L25.2188 40.7071L26.1894 40.4667ZM26.1894 40.4667L26.1894 40.4667L25.2188 40.7071C25.3516 41.2432 25.8938 41.5701 26.4299 41.4373L26.1894 40.4667ZM26.1894 40.4667L26.1894 40.4667L26.4299 41.4373C26.966 41.3045 27.2929 40.7623 27.1601 40.2262L26.1894 40.4667ZM22.3553 24.9886L26.1894 40.4667L27.1601 40.2262L23.3259 24.7482L22.3553 24.9886ZM30.7006 38.7111L23.283 24.6353L22.3983 25.1015L29.8159 39.1773L30.7006 38.7111ZM30.7006 38.7111L30.7006 38.7111L29.8159 39.1773C30.0733 39.6659 30.6782 39.8533 31.1668 39.5958L30.7006 38.7111ZM30.7006 38.7111L30.7006 38.7111L31.1668 39.5958C31.6553 39.3383 31.8427 38.7335 31.5852 38.2449L30.7006 38.7111ZM23.2997 24.6671L30.7006 38.7111L31.5852 38.2449L24.1844 24.2009L23.2997 24.6671ZM34.6783 36.0222L24.1163 24.1024L23.3678 24.7656L33.9299 36.6854L34.6783 36.0222ZM34.6783 36.0222L34.6783 36.0222L33.9299 36.6854C34.2962 37.0988 34.9282 37.1369 35.3415 36.7707L34.6783 36.0222ZM34.6783 36.0222L34.6783 36.0222L35.3415 36.7707C35.7549 36.4044 35.793 35.7724 35.4268 35.359L34.6783 36.0222ZM24.0801 24.0616L34.6783 36.0222L35.4268 35.359L24.8285 23.3984L24.0801 24.0616ZM37.8783 32.3555L24.7376 23.318L24.171 24.1419L37.3116 33.1795L37.8783 32.3555ZM37.8783 32.3556L37.8783 32.3556L37.3116 33.1795C37.7667 33.4925 38.3893 33.3773 38.7022 32.9222L37.8783 32.3556ZM37.8783 32.3555L37.8783 32.3555L38.7022 32.9222C39.0152 32.4672 38.9 31.8446 38.445 31.5316L37.8783 32.3555ZM24.798 23.3595L37.8783 32.3555L38.445 31.5316L25.3646 22.5355L24.798 23.3595ZM40.1228 28.1333L25.259 22.4802L24.9035 23.4149L39.7673 29.068L40.1228 28.1333ZM40.1228 28.1333L40.1228 28.1333L39.7673 29.068C40.2835 29.2643 40.8611 29.005 41.0574 28.4888L40.1228 28.1333ZM40.1228 28.1333L40.1228 28.1333L41.0574 28.4888C41.2538 27.9726 40.9945 27.395 40.4782 27.1986L40.1228 28.1333ZM25.1871 22.4528L40.1228 28.1333L40.4783 27.1986L25.5426 21.5181L25.1871 22.4528ZM41.2783 23.4L25.4247 21.4891L25.305 22.4819L41.1586 24.3928L41.2783 23.4ZM41.2783 23.4L41.2783 23.4L41.1586 24.3928C41.7069 24.4589 42.205 24.068 42.2711 23.5197L41.2783 23.4ZM41.2783 23.4L41.2783 23.4L42.2711 23.5197C42.3372 22.9714 41.9463 22.4733 41.398 22.4072L41.2783 23.4ZM25.5046 21.4987L41.2783 23.4L41.398 22.4072L25.6242 20.5059L25.5046 21.4987ZM41.2783 18.6222L25.5051 20.5058L25.6237 21.4988L41.3969 19.6151L41.2783 18.6222ZM41.2783 18.6222L41.2783 18.6222L41.3969 19.6151C41.9453 19.5496 42.3367 19.052 42.2712 18.5036L41.2783 18.6222ZM41.2783 18.6222L41.2783 18.6222L42.2712 18.5036C42.2058 17.9552 41.7081 17.5638 41.1597 17.6292L41.2783 18.6222ZM25.407 20.5175L41.2783 18.6222L41.1597 17.6292L25.2884 19.5246L25.407 20.5175ZM40.1228 13.8667L25.17 19.5537L25.5255 20.4884L40.4783 14.8014L40.1228 13.8667ZM40.1228 13.8667L40.1228 13.8667L40.4783 14.8014C40.9945 14.605 41.2538 14.0274 41.0574 13.5112L40.1228 13.8667ZM40.1228 13.8667L40.1228 13.8667L41.0574 13.5112C40.8611 12.995 40.2835 12.7357 39.7673 12.932L40.1228 13.8667ZM25.2588 19.5199L40.1228 13.8667L39.7673 12.932L24.9033 18.5853L25.2588 19.5199ZM37.8783 9.64441L24.7977 18.6406L25.3644 19.4646L38.445 10.4684L37.8783 9.64441ZM37.8783 9.64441L37.8783 9.64441L38.445 10.4684C38.9 10.1554 39.0152 9.53279 38.7022 9.07773L37.8783 9.64441ZM37.8783 9.64441L37.8783 9.64441L38.7022 9.07774C38.3893 8.62268 37.7667 8.5075 37.3116 8.82047L37.8783 9.64441ZM24.7377 18.6819L37.8783 9.64441L37.3116 8.82047L24.1711 17.8579L24.7377 18.6819ZM34.6783 5.97778L24.0802 17.9383L24.8286 18.6015L35.4268 6.64098L34.6783 5.97778ZM34.6783 5.97778L34.6783 5.97778L35.4268 6.64098C35.793 6.22762 35.7549 5.59561 35.3415 5.22934L34.6783 5.97778ZM34.6783 5.97778L34.6783 5.97779L35.3415 5.22933C34.9282 4.86307 34.2962 4.90123 33.9299 5.31459L34.6783 5.97778ZM24.1163 17.8975L34.6783 5.97778L33.9299 5.31459L23.3679 17.2343L24.1163 17.8975ZM30.7006 3.28894L23.2998 17.3328L24.1845 17.799L31.5852 3.75514L30.7006 3.28894ZM30.7006 3.28894L30.7006 3.28894L31.5852 3.75514C31.8427 3.26655 31.6553 2.66174 31.1668 2.40426L30.7006 3.28894ZM30.7006 3.28894L30.7006 3.28894L31.1668 2.40426C30.6782 2.14679 30.0734 2.33414 29.8159 2.82274L30.7006 3.28894ZM23.2829 17.3648L30.7006 3.28894L29.8159 2.82274L22.3983 16.8986L23.2829 17.3648ZM26.1894 1.53333L22.3553 17.0114L23.3259 17.2519L27.1601 1.77377L26.1894 1.53333ZM26.1894 1.53333L26.1894 1.53333L27.1601 1.77377C27.2929 1.23769 26.966 0.695459 26.4299 0.562663L26.1894 1.53333ZM26.1894 1.53333L26.1894 1.53333L26.4299 0.562663C25.8938 0.429867 25.3516 0.756796 25.2188 1.29288L26.1894 1.53333ZM22.3571 17.0039L26.1894 1.53333L25.2188 1.29288L21.3865 16.7634L22.3571 17.0039ZM21.3895 1L21.3718 16.8831L22.3718 16.8842L22.3895 1.00111L21.3895 1Z" fill="#887EFF"/>
</svg>
